<svg width="24" height="25" viewBox="0 0 24 25" fill="none" xmlns="http://www.w3.org/2000/svg">
<g clip-path="url(#clip0_18_653)">
<path d="M23.7662 10.1496H22.7996V10.0998H11.9998V14.8998H18.7815C17.7921 17.6939 15.1335 19.6997 11.9998 19.6997C8.02366 19.6997 4.79992 16.4759 4.79992 12.4998C4.79992 8.52366 8.02366 5.29992 11.9998 5.29992C13.8352 5.29992 15.5049 5.9923 16.7763 7.12329L20.1705 3.72914C18.0273 1.73178 15.1605 0.5 11.9998 0.5C5.37291 0.5 0 5.87291 0 12.4998C0 19.1267 5.37291 24.4996 11.9998 24.4996C18.6267 24.4996 23.9996 19.1267 23.9996 12.4998C23.9996 11.6952 23.9168 10.9098 23.7662 10.1496Z" fill="#FFC107"/>
<path d="M1.38278 6.91449L5.32531 9.80584C6.3921 7.16468 8.97565 5.29992 11.999 5.29992C13.8344 5.29992 15.5041 5.9923 16.7755 7.12328L20.1697 3.72914C18.0265 1.73178 15.1597 0.5 11.999 0.5C7.38988 0.5 3.39275 3.10215 1.38278 6.91449Z" fill="#FF3D00"/>
<path d="M12 24.5C15.0995 24.5 17.9159 23.3138 20.0452 21.3848L16.3313 18.2421C15.0861 19.1891 13.5644 19.7013 12 19.7001C8.87884 19.7001 6.22868 17.7099 5.2303 14.9326L1.31717 17.9475C3.30313 21.8336 7.33627 24.5 12 24.5Z" fill="#4CAF50"/>
<path d="M23.7662 10.1497H22.7996V10.0999H11.9998V14.8998H18.7815C18.3082 16.2296 17.4557 17.3916 16.3293 18.2423L16.3311 18.2411L20.045 21.3839C19.7823 21.6227 23.9996 18.4997 23.9996 12.4998C23.9996 11.6952 23.9168 10.9098 23.7662 10.1497Z" fill="#1976D2"/>
</g>
<defs>
<clipPath id="clip0_18_653">
<rect y="0.5" width="24" height="24" rx="12" fill="white"/>
</clipPath>
</defs>
</svg>
