<svg width="82" height="39" viewBox="0 0 82 39" fill="none" xmlns="http://www.w3.org/2000/svg">
<path fill-rule="evenodd" clip-rule="evenodd" d="M0 0V24H24V0H0ZM3.41421 2L12 10.5858L20.5858 2H3.41421ZM22 3.41421L13.4142 12L22 20.5858V3.41421ZM20.5858 22L12 13.4142L3.41421 22H20.5858ZM2 20.5858L10.5858 12L2 3.41421V20.5858Z" fill="#DDE1E6"/>
<path d="M40.4922 18.2578V21H31.9023V18.2578H40.4922ZM33.0391 3.9375V21H29.5234V3.9375H33.0391ZM41.7578 14.7891V14.543C41.7578 13.6133 41.8906 12.7578 42.1562 11.9766C42.4219 11.1875 42.8086 10.5039 43.3164 9.92578C43.8242 9.34766 44.4492 8.89844 45.1914 8.57812C45.9336 8.25 46.7852 8.08594 47.7461 8.08594C48.707 8.08594 49.5625 8.25 50.3125 8.57812C51.0625 8.89844 51.6914 9.34766 52.1992 9.92578C52.7148 10.5039 53.1055 11.1875 53.3711 11.9766C53.6367 12.7578 53.7695 13.6133 53.7695 14.543V14.7891C53.7695 15.7109 53.6367 16.5664 53.3711 17.3555C53.1055 18.1367 52.7148 18.8203 52.1992 19.4062C51.6914 19.9844 51.0664 20.4336 50.3242 20.7539C49.582 21.0742 48.7305 21.2344 47.7695 21.2344C46.8086 21.2344 45.9531 21.0742 45.2031 20.7539C44.4609 20.4336 43.832 19.9844 43.3164 19.4062C42.8086 18.8203 42.4219 18.1367 42.1562 17.3555C41.8906 16.5664 41.7578 15.7109 41.7578 14.7891ZM45.1328 14.543V14.7891C45.1328 15.3203 45.1797 15.8164 45.2734 16.2773C45.3672 16.7383 45.5156 17.1445 45.7188 17.4961C45.9297 17.8398 46.2031 18.1094 46.5391 18.3047C46.875 18.5 47.2852 18.5977 47.7695 18.5977C48.2383 18.5977 48.6406 18.5 48.9766 18.3047C49.3125 18.1094 49.582 17.8398 49.7852 17.4961C49.9883 17.1445 50.1367 16.7383 50.2305 16.2773C50.332 15.8164 50.3828 15.3203 50.3828 14.7891V14.543C50.3828 14.0273 50.332 13.543 50.2305 13.0898C50.1367 12.6289 49.9844 12.2227 49.7734 11.8711C49.5703 11.5117 49.3008 11.2305 48.9648 11.0273C48.6289 10.8242 48.2227 10.7227 47.7461 10.7227C47.2695 10.7227 46.8633 10.8242 46.5273 11.0273C46.1992 11.2305 45.9297 11.5117 45.7188 11.8711C45.5156 12.2227 45.3672 12.6289 45.2734 13.0898C45.1797 13.543 45.1328 14.0273 45.1328 14.543ZM63.8711 8.32031H66.9297V20.5781C66.9297 21.7344 66.6719 22.7148 66.1562 23.5195C65.6484 24.332 64.9375 24.9453 64.0234 25.3594C63.1094 25.7812 62.0469 25.9922 60.8359 25.9922C60.3047 25.9922 59.7422 25.9219 59.1484 25.7812C58.5625 25.6406 58 25.4219 57.4609 25.125C56.9297 24.8281 56.4844 24.4531 56.125 24L57.6133 22.0078C58.0039 22.4609 58.457 22.8125 58.9727 23.0625C59.4883 23.3203 60.0586 23.4492 60.6836 23.4492C61.293 23.4492 61.8086 23.3359 62.2305 23.1094C62.6523 22.8906 62.9766 22.5664 63.2031 22.1367C63.4297 21.7148 63.543 21.2031 63.543 20.6016V11.25L63.8711 8.32031ZM55.3398 14.8125V14.5664C55.3398 13.5977 55.457 12.7188 55.6914 11.9297C55.9336 11.1328 56.2734 10.4492 56.7109 9.87891C57.1562 9.30859 57.6953 8.86719 58.3281 8.55469C58.9609 8.24219 59.6758 8.08594 60.4727 8.08594C61.3164 8.08594 62.0234 8.24219 62.5938 8.55469C63.1641 8.86719 63.6328 9.3125 64 9.89062C64.3672 10.4609 64.6523 11.1367 64.8555 11.918C65.0664 12.6914 65.2305 13.5391 65.3477 14.4609V15C65.2305 15.8828 65.0547 16.7031 64.8203 17.4609C64.5859 18.2188 64.2773 18.8828 63.8945 19.4531C63.5117 20.0156 63.0352 20.4531 62.4648 20.7656C61.9023 21.0781 61.2305 21.2344 60.4492 21.2344C59.668 21.2344 58.9609 21.0742 58.3281 20.7539C57.7031 20.4336 57.168 19.9844 56.7227 19.4062C56.2773 18.8281 55.9336 18.1484 55.6914 17.3672C55.457 16.5859 55.3398 15.7344 55.3398 14.8125ZM58.7148 14.5664V14.8125C58.7148 15.3359 58.7656 15.8242 58.8672 16.2773C58.9688 16.7305 59.125 17.1328 59.3359 17.4844C59.5547 17.8281 59.8242 18.0977 60.1445 18.293C60.4727 18.4805 60.8594 18.5742 61.3047 18.5742C61.9219 18.5742 62.4258 18.4453 62.8164 18.1875C63.207 17.9219 63.5 17.5586 63.6953 17.0977C63.8906 16.6367 64.0039 16.1055 64.0352 15.5039V13.9688C64.0195 13.4766 63.9531 13.0352 63.8359 12.6445C63.7188 12.2461 63.5547 11.9062 63.3438 11.625C63.1328 11.3438 62.8594 11.125 62.5234 10.9688C62.1875 10.8125 61.7891 10.7344 61.3281 10.7344C60.8828 10.7344 60.4961 10.8359 60.168 11.0391C59.8477 11.2344 59.5781 11.5039 59.3594 11.8477C59.1484 12.1914 58.9883 12.5977 58.8789 13.0664C58.7695 13.5273 58.7148 14.0273 58.7148 14.5664ZM69.0156 14.7891V14.543C69.0156 13.6133 69.1484 12.7578 69.4141 11.9766C69.6797 11.1875 70.0664 10.5039 70.5742 9.92578C71.082 9.34766 71.707 8.89844 72.4492 8.57812C73.1914 8.25 74.043 8.08594 75.0039 8.08594C75.9648 8.08594 76.8203 8.25 77.5703 8.57812C78.3203 8.89844 78.9492 9.34766 79.457 9.92578C79.9727 10.5039 80.3633 11.1875 80.6289 11.9766C80.8945 12.7578 81.0273 13.6133 81.0273 14.543V14.7891C81.0273 15.7109 80.8945 16.5664 80.6289 17.3555C80.3633 18.1367 79.9727 18.8203 79.457 19.4062C78.9492 19.9844 78.3242 20.4336 77.582 20.7539C76.8398 21.0742 75.9883 21.2344 75.0273 21.2344C74.0664 21.2344 73.2109 21.0742 72.4609 20.7539C71.7188 20.4336 71.0898 19.9844 70.5742 19.4062C70.0664 18.8203 69.6797 18.1367 69.4141 17.3555C69.1484 16.5664 69.0156 15.7109 69.0156 14.7891ZM72.3906 14.543V14.7891C72.3906 15.3203 72.4375 15.8164 72.5312 16.2773C72.625 16.7383 72.7734 17.1445 72.9766 17.4961C73.1875 17.8398 73.4609 18.1094 73.7969 18.3047C74.1328 18.5 74.543 18.5977 75.0273 18.5977C75.4961 18.5977 75.8984 18.5 76.2344 18.3047C76.5703 18.1094 76.8398 17.8398 77.043 17.4961C77.2461 17.1445 77.3945 16.7383 77.4883 16.2773C77.5898 15.8164 77.6406 15.3203 77.6406 14.7891V14.543C77.6406 14.0273 77.5898 13.543 77.4883 13.0898C77.3945 12.6289 77.2422 12.2227 77.0312 11.8711C76.8281 11.5117 76.5586 11.2305 76.2227 11.0273C75.8867 10.8242 75.4805 10.7227 75.0039 10.7227C74.5273 10.7227 74.1211 10.8242 73.7852 11.0273C73.457 11.2305 73.1875 11.5117 72.9766 11.8711C72.7734 12.2227 72.625 12.6289 72.5312 13.0898C72.4375 13.543 72.3906 14.0273 72.3906 14.543Z" fill="#C1C7CD"/>
<path d="M32.4434 35H31.3594V27.9922C31.3594 27.5352 31.4414 27.1504 31.6055 26.8379C31.7734 26.5215 32.0137 26.2832 32.3262 26.123C32.6387 25.959 33.0098 25.877 33.4395 25.877C33.5645 25.877 33.6895 25.8848 33.8145 25.9004C33.9434 25.916 34.0684 25.9395 34.1895 25.9707L34.1309 26.8555C34.0488 26.8359 33.9551 26.8223 33.8496 26.8145C33.748 26.8066 33.6465 26.8027 33.5449 26.8027C33.3145 26.8027 33.1152 26.8496 32.9473 26.9434C32.7832 27.0332 32.6582 27.166 32.5723 27.3418C32.4863 27.5176 32.4434 27.7344 32.4434 27.9922V35ZM33.791 28.6602V29.4922H30.3574V28.6602H33.791ZM34.7109 31.9004V31.7656C34.7109 31.3086 34.7773 30.8848 34.9102 30.4941C35.043 30.0996 35.2344 29.7578 35.4844 29.4688C35.7344 29.1758 36.0371 28.9492 36.3926 28.7891C36.748 28.625 37.1465 28.543 37.5879 28.543C38.0332 28.543 38.4336 28.625 38.7891 28.7891C39.1484 28.9492 39.4531 29.1758 39.7031 29.4688C39.957 29.7578 40.1504 30.0996 40.2832 30.4941C40.416 30.8848 40.4824 31.3086 40.4824 31.7656V31.9004C40.4824 32.3574 40.416 32.7812 40.2832 33.1719C40.1504 33.5625 39.957 33.9043 39.7031 34.1973C39.4531 34.4863 39.1504 34.7129 38.7949 34.877C38.4434 35.0371 38.0449 35.1172 37.5996 35.1172C37.1543 35.1172 36.7539 35.0371 36.3984 34.877C36.043 34.7129 35.7383 34.4863 35.4844 34.1973C35.2344 33.9043 35.043 33.5625 34.9102 33.1719C34.7773 32.7812 34.7109 32.3574 34.7109 31.9004ZM35.7949 31.7656V31.9004C35.7949 32.2168 35.832 32.5156 35.9062 32.7969C35.9805 33.0742 36.0918 33.3203 36.2402 33.5352C36.3926 33.75 36.582 33.9199 36.8086 34.0449C37.0352 34.166 37.2988 34.2266 37.5996 34.2266C37.8965 34.2266 38.1562 34.166 38.3789 34.0449C38.6055 33.9199 38.793 33.75 38.9414 33.5352C39.0898 33.3203 39.2012 33.0742 39.2754 32.7969C39.3535 32.5156 39.3926 32.2168 39.3926 31.9004V31.7656C39.3926 31.4531 39.3535 31.1582 39.2754 30.8809C39.2012 30.5996 39.0879 30.3516 38.9355 30.1367C38.7871 29.918 38.5996 29.7461 38.373 29.6211C38.1504 29.4961 37.8887 29.4336 37.5879 29.4336C37.291 29.4336 37.0293 29.4961 36.8027 29.6211C36.5801 29.7461 36.3926 29.918 36.2402 30.1367C36.0918 30.3516 35.9805 30.5996 35.9062 30.8809C35.832 31.1582 35.7949 31.4531 35.7949 31.7656ZM42.9258 29.6562V35H41.8418V28.6602H42.8965L42.9258 29.6562ZM44.9062 28.625L44.9004 29.6328C44.8105 29.6133 44.7246 29.6016 44.6426 29.5977C44.5645 29.5898 44.4746 29.5859 44.373 29.5859C44.123 29.5859 43.9023 29.625 43.7109 29.7031C43.5195 29.7812 43.3574 29.8906 43.2246 30.0312C43.0918 30.1719 42.9863 30.3398 42.9082 30.5352C42.834 30.7266 42.7852 30.9375 42.7617 31.168L42.457 31.3438C42.457 30.9609 42.4941 30.6016 42.5684 30.2656C42.6465 29.9297 42.7656 29.6328 42.9258 29.375C43.0859 29.1133 43.2891 28.9102 43.5352 28.7656C43.7852 28.6172 44.082 28.543 44.4258 28.543C44.5039 28.543 44.5938 28.5527 44.6953 28.5723C44.7969 28.5879 44.8672 28.6055 44.9062 28.625ZM50.1797 26.4688V35H49.0488V26.4688H50.1797ZM53.7539 30.3066V31.2324H49.9336V30.3066H53.7539ZM54.334 26.4688V27.3945H49.9336V26.4688H54.334ZM56.6953 28.6602V35H55.6055V28.6602H56.6953ZM55.5234 26.9785C55.5234 26.8027 55.5762 26.6543 55.6816 26.5332C55.791 26.4121 55.9512 26.3516 56.1621 26.3516C56.3691 26.3516 56.5273 26.4121 56.6367 26.5332C56.75 26.6543 56.8066 26.8027 56.8066 26.9785C56.8066 27.1465 56.75 27.291 56.6367 27.4121C56.5273 27.5293 56.3691 27.5879 56.1621 27.5879C55.9512 27.5879 55.791 27.5293 55.6816 27.4121C55.5762 27.291 55.5234 27.1465 55.5234 26.9785ZM62.543 28.6602H63.5273V34.8652C63.5273 35.4238 63.4141 35.9004 63.1875 36.2949C62.9609 36.6895 62.6445 36.9883 62.2383 37.1914C61.8359 37.3984 61.3711 37.502 60.8438 37.502C60.625 37.502 60.3672 37.4668 60.0703 37.3965C59.7773 37.3301 59.4883 37.2148 59.2031 37.0508C58.9219 36.8906 58.6855 36.6738 58.4941 36.4004L59.0625 35.7559C59.3281 36.0762 59.6055 36.2988 59.8945 36.4238C60.1875 36.5488 60.4766 36.6113 60.7617 36.6113C61.1055 36.6113 61.4023 36.5469 61.6523 36.418C61.9023 36.2891 62.0957 36.0977 62.2324 35.8438C62.373 35.5938 62.4434 35.2852 62.4434 34.918V30.0547L62.543 28.6602ZM58.1777 31.9004V31.7773C58.1777 31.293 58.2344 30.8535 58.3477 30.459C58.4648 30.0605 58.6309 29.7188 58.8457 29.4336C59.0645 29.1484 59.3281 28.9297 59.6367 28.7773C59.9453 28.6211 60.293 28.543 60.6797 28.543C61.0781 28.543 61.4258 28.6133 61.7227 28.7539C62.0234 28.8906 62.2773 29.0918 62.4844 29.3574C62.6953 29.6191 62.8613 29.9355 62.9824 30.3066C63.1035 30.6777 63.1875 31.0977 63.2344 31.5664V32.1055C63.1914 32.5703 63.1074 32.9883 62.9824 33.3594C62.8613 33.7305 62.6953 34.0469 62.4844 34.3086C62.2773 34.5703 62.0234 34.7715 61.7227 34.9121C61.4219 35.0488 61.0703 35.1172 60.668 35.1172C60.2891 35.1172 59.9453 35.0371 59.6367 34.877C59.332 34.7168 59.0703 34.4922 58.8516 34.2031C58.6328 33.9141 58.4648 33.5742 58.3477 33.1836C58.2344 32.7891 58.1777 32.3613 58.1777 31.9004ZM59.2617 31.7773V31.9004C59.2617 32.2168 59.293 32.5137 59.3555 32.791C59.4219 33.0684 59.5215 33.3125 59.6543 33.5234C59.791 33.7344 59.9648 33.9004 60.1758 34.0215C60.3867 34.1387 60.6387 34.1973 60.9316 34.1973C61.291 34.1973 61.5879 34.1211 61.8223 33.9688C62.0566 33.8164 62.2422 33.6152 62.3789 33.3652C62.5195 33.1152 62.6289 32.8438 62.707 32.5508V31.1387C62.6641 30.9238 62.5977 30.7168 62.5078 30.5176C62.4219 30.3145 62.3086 30.1348 62.168 29.9785C62.0312 29.8184 61.8613 29.6914 61.6582 29.5977C61.4551 29.5039 61.2168 29.457 60.9434 29.457C60.6465 29.457 60.3906 29.5195 60.1758 29.6445C59.9648 29.7656 59.791 29.9336 59.6543 30.1484C59.5215 30.3594 59.4219 30.6055 59.3555 30.8867C59.293 31.1641 59.2617 31.4609 59.2617 31.7773ZM66.252 29.9199V35H65.1621V28.6602H66.1934L66.252 29.9199ZM66.0293 31.5898L65.5254 31.5723C65.5293 31.1387 65.5859 30.7383 65.6953 30.3711C65.8047 30 65.9668 29.6777 66.1816 29.4043C66.3965 29.1309 66.6641 28.9199 66.9844 28.7715C67.3047 28.6191 67.6758 28.543 68.0977 28.543C68.3945 28.543 68.668 28.5859 68.918 28.6719C69.168 28.7539 69.3848 28.8848 69.5684 29.0645C69.752 29.2441 69.8945 29.4746 69.9961 29.7559C70.0977 30.0371 70.1484 30.377 70.1484 30.7754V35H69.0645V30.8281C69.0645 30.4961 69.0078 30.2305 68.8945 30.0312C68.7852 29.832 68.6289 29.6875 68.4258 29.5977C68.2227 29.5039 67.9844 29.457 67.7109 29.457C67.3906 29.457 67.123 29.5137 66.9082 29.627C66.6934 29.7402 66.5215 29.8965 66.3926 30.0957C66.2637 30.2949 66.1699 30.5234 66.1113 30.7812C66.0566 31.0352 66.0293 31.3047 66.0293 31.5898ZM70.1367 30.9922L69.4102 31.2148C69.4141 30.8672 69.4707 30.5332 69.5801 30.2129C69.6934 29.8926 69.8555 29.6074 70.0664 29.3574C70.2812 29.1074 70.5449 28.9102 70.8574 28.7656C71.1699 28.6172 71.5273 28.543 71.9297 28.543C72.2695 28.543 72.5703 28.5879 72.832 28.6777C73.0977 28.7676 73.3203 28.9062 73.5 29.0938C73.6836 29.2773 73.8223 29.5137 73.916 29.8027C74.0098 30.0918 74.0566 30.4355 74.0566 30.834V35H72.9668V30.8223C72.9668 30.4668 72.9102 30.1914 72.7969 29.9961C72.6875 29.7969 72.5312 29.6582 72.3281 29.5801C72.1289 29.498 71.8906 29.457 71.6133 29.457C71.375 29.457 71.1641 29.498 70.9805 29.5801C70.7969 29.6621 70.6426 29.7754 70.5176 29.9199C70.3926 30.0605 70.2969 30.2227 70.2305 30.4062C70.168 30.5898 70.1367 30.7852 70.1367 30.9922ZM79.4355 33.916V30.6523C79.4355 30.4023 79.3848 30.1855 79.2832 30.002C79.1855 29.8145 79.0371 29.6699 78.8379 29.5684C78.6387 29.4668 78.3926 29.416 78.0996 29.416C77.8262 29.416 77.5859 29.4629 77.3789 29.5566C77.1758 29.6504 77.0156 29.7734 76.8984 29.9258C76.7852 30.0781 76.7285 30.2422 76.7285 30.418H75.6445C75.6445 30.1914 75.7031 29.9668 75.8203 29.7441C75.9375 29.5215 76.1055 29.3203 76.3242 29.1406C76.5469 28.957 76.8125 28.8125 77.1211 28.707C77.4336 28.5977 77.7812 28.543 78.1641 28.543C78.625 28.543 79.0312 28.6211 79.3828 28.7773C79.7383 28.9336 80.0156 29.1699 80.2148 29.4863C80.418 29.7988 80.5195 30.1914 80.5195 30.6641V33.6172C80.5195 33.8281 80.5371 34.0527 80.5723 34.291C80.6113 34.5293 80.668 34.7344 80.7422 34.9062V35H79.6113C79.5566 34.875 79.5137 34.709 79.4824 34.502C79.4512 34.291 79.4355 34.0957 79.4355 33.916ZM79.623 31.1562L79.6348 31.918H78.5391C78.2305 31.918 77.9551 31.9434 77.7129 31.9941C77.4707 32.041 77.2676 32.1133 77.1035 32.2109C76.9395 32.3086 76.8145 32.4316 76.7285 32.5801C76.6426 32.7246 76.5996 32.8945 76.5996 33.0898C76.5996 33.2891 76.6445 33.4707 76.7344 33.6348C76.8242 33.7988 76.959 33.9297 77.1387 34.0273C77.3223 34.1211 77.5469 34.168 77.8125 34.168C78.1445 34.168 78.4375 34.0977 78.6914 33.957C78.9453 33.8164 79.1465 33.6445 79.2949 33.4414C79.4473 33.2383 79.5293 33.041 79.541 32.8496L80.0039 33.3711C79.9766 33.5352 79.9023 33.7168 79.7812 33.916C79.6602 34.1152 79.498 34.3066 79.2949 34.4902C79.0957 34.6699 78.8574 34.8203 78.5801 34.9414C78.3066 35.0586 77.998 35.1172 77.6543 35.1172C77.2246 35.1172 76.8477 35.0332 76.5234 34.8652C76.2031 34.6973 75.9531 34.4727 75.7734 34.1914C75.5977 33.9062 75.5098 33.5879 75.5098 33.2363C75.5098 32.8965 75.5762 32.5977 75.709 32.3398C75.8418 32.0781 76.0332 31.8613 76.2832 31.6895C76.5332 31.5137 76.834 31.3809 77.1855 31.291C77.5371 31.2012 77.9297 31.1562 78.3633 31.1562H79.623Z" fill="#C1C7CD"/>
</svg>
