<svg width="24" height="25" viewBox="0 0 24 25" fill="none" xmlns="http://www.w3.org/2000/svg">
<g id="icon / jam-icons / outline &#38; logos / youtube">
<path id="Vector" d="M17.812 5.51699H6.145C3.855 5.51699 2 7.35199 2 9.61599V15.384C2 17.648 3.856 19.484 6.145 19.484H17.812C20.102 19.484 21.957 17.648 21.957 15.384V9.61599C21.957 7.35199 20.101 5.51599 17.812 5.51599V5.51699ZM15.009 12.78L9.552 15.355C9.51872 15.371 9.48192 15.3784 9.44503 15.3763C9.40815 15.3743 9.37237 15.363 9.34103 15.3434C9.3097 15.3239 9.28382 15.2967 9.2658 15.2645C9.24779 15.2322 9.23822 15.1959 9.238 15.159V9.84999C9.23867 9.81286 9.24872 9.77651 9.26722 9.74432C9.28573 9.71212 9.31208 9.68513 9.34382 9.66587C9.37556 9.6466 9.41167 9.63568 9.44877 9.63413C9.48587 9.63258 9.52276 9.64044 9.556 9.65699L15.014 12.392C15.0504 12.4101 15.0809 12.4381 15.102 12.4728C15.1232 12.5075 15.1341 12.5474 15.1336 12.5881C15.1331 12.6287 15.1211 12.6683 15.0991 12.7025C15.077 12.7366 15.0458 12.7638 15.009 12.781V12.78Z" fill="#F5F2F1"/>
</g>
</svg>
